<?xml version="1.0" encoding="utf-8"?>
<!-- Generator: Adobe Illustrator 26.4.1, SVG Export Plug-In . SVG Version: 6.00 Build 0)  -->
<svg version="1.1" id="Layer_1" xmlns="http://www.w3.org/2000/svg" xmlns:xlink="http://www.w3.org/1999/xlink" x="0px" y="0px"
	 viewBox="0 0 69.1 17.4" style="enable-background:new 0 0 69.1 17.4;" xml:space="preserve">
<style type="text/css">
	.st0{enable-background:new    ;}
</style>
<g class="st0">
	<path d="M1.6,4.9L0.3,6.1C0.2,5.7,0.1,5.3,0.1,4.9c0-1.3,0.5-2.4,1.5-3.2c1-0.8,2.3-1.2,3.9-1.2h0.6C5.9,1.7,5.7,2.5,5.7,2.9
		L5.4,5.2c2.4-3.1,4.3-4.6,5.9-4.6c0.4,0,0.7,0.1,1.1,0.2l-1,1.1c-0.3-0.2-0.6-0.3-1-0.3c-0.7,0-1.3,0.3-2.1,0.9
		C7.7,3.1,7.1,3.9,6.6,4.8c0.5,0.9,1,1.8,1.7,2.7l0.8,1.1c0.5,0.7,1,1.1,1.3,1.1c0.4,0,0.8-0.3,1.1-0.9c0.1,0.1,0.2,0.2,0.2,0.3
		c0,0.3-0.2,0.7-0.7,1.1c-0.4,0.4-0.8,0.6-1.1,0.6c-0.6,0-1.3-0.7-2.4-2.2C6.7,7.4,6,6.2,5.4,5.2L5.3,6.6L5.2,7.5
		C5.1,8.2,4.9,8.7,4.7,9C4.5,9.4,4,9.7,3.4,10l1.8,0.1L4.3,11L1,10.8l1-0.9L2.8,10c0.6-0.4,1-1.2,1.1-2.4L4,6.8l0.6-5.3H4.4
		c-2.1,0-3.2,0.7-3.2,2.1C1.2,4,1.3,4.4,1.6,4.9z"/>
	<path d="M14.9,4.6L14.6,8c-0.1,0.6-0.1,1.1-0.1,1.3c0,0.6,0.2,0.9,0.6,0.9c0.4,0,0.9-0.3,1.3-1c0.1,0.1,0.1,0.2,0.1,0.3
		c0,0.3-0.3,0.6-0.8,1c-0.5,0.4-0.9,0.6-1.3,0.6c-0.7,0-1.1-0.5-1.1-1.4c0-0.3,0-0.9,0.1-1.7l0.4-3.4h-1.6l0.9-0.9h0.8l0.2-1.4
		l1.1-0.4L15,3.7h3.2l-0.9,0.9H14.9z"/>
	<path d="M30.5,8.1c0.1,0.1,0.2,0.1,0.2,0.2c0,0.3-0.3,0.8-0.9,1.3c-1,0.9-2.2,1.4-3.6,1.4c-1.1,0-1.9-0.4-2.6-1.2
		c-0.6-0.8-1-1.8-1-3.1c0-1.9,0.6-3.4,1.8-4.7c1.2-1.3,2.7-1.9,4.4-1.9c0.9,0,1.8,0.2,2.8,0.5l-0.5,1.1l-0.1,0.3
		c-0.1,0.3-0.3,0.4-0.5,0.4c0,0-0.1,0-0.2,0c0.1-0.2,0.1-0.3,0.1-0.4c0-0.3-0.2-0.6-0.7-0.9s-1-0.4-1.6-0.4c-1.2,0-2.3,0.5-3,1.5
		c-0.8,1-1.2,2.3-1.2,3.8c0,1.2,0.3,2.2,0.8,2.9c0.5,0.7,1.3,1.1,2.2,1.1c0.7,0,1.3-0.2,2-0.6C29.7,9.2,30.2,8.7,30.5,8.1z"/>
	<path d="M36.9,7.8c-0.6,0.9-1.2,1.7-1.9,2.3c-0.7,0.6-1.3,0.9-1.8,0.9c-0.7,0-1-0.6-1-1.7c0-1.5,0.5-2.9,1.5-4
		c1-1.1,2.2-1.7,3.6-1.7c0.5,0,1,0.1,1.4,0.2c0,0.1,0,0.1,0,0.2l-0.1,0.4c-0.1,0.3-0.1,0.4-0.1,0.5l-0.5,3.4l-0.1,0.5
		c-0.1,0.5-0.1,0.8-0.1,1c0,0.2,0.1,0.3,0.2,0.3c0.4,0,0.9-0.5,1.3-1.4c0.1,0.1,0.2,0.2,0.2,0.2c0,0.2-0.2,0.5-0.7,1.1
		c-0.6,0.7-1.1,1.1-1.7,1.1c-0.4,0-0.6-0.2-0.6-0.7c0-0.2,0-0.4,0.1-0.6L36.7,9l0.1-0.7L36.9,7.8z M37.3,4.8
		c-0.5-0.3-0.9-0.4-1.4-0.4c-0.7,0-1.3,0.4-1.8,1.3c-0.5,0.9-0.7,1.9-0.7,3.2c0,0.7,0.2,1,0.6,1c0.5,0,1-0.3,1.6-1
		c0.9-0.9,1.4-2,1.6-3.3L37.3,4.8z"/>
	<path d="M42.7,6.7c1.1-2.1,2.2-3.2,3.3-3.2c0.3,0,0.6,0.1,0.9,0.2l-1.1,1.2c-0.2-0.1-0.4-0.1-0.6-0.1c-0.5,0-1.1,0.4-1.7,1.3
		c-0.6,0.9-0.9,1.7-1,2.7l-0.2,1.9l-1.1,0.4l0-0.2l0.1-0.5l0.1-0.5l0.4-3.6l0-0.4c0-0.3,0.1-0.5,0.1-0.7c0-0.3-0.1-0.5-0.3-0.5
		c-0.4,0-0.8,0.4-1.2,1.3c-0.1-0.1-0.2-0.2-0.2-0.3c0-0.3,0.3-0.7,0.9-1.2s1-0.8,1.3-0.8c0.4,0,0.6,0.3,0.6,0.9c0,0.1,0,0.3,0,0.6
		l-0.1,0.5l-0.1,0.6L42.7,6.7z"/>
	<path d="M48.7,10.5L47.6,11l0-0.2l0.1-0.6l0.1-0.5l0.4-3.5l0-0.4c0-0.3,0-0.6,0-0.8c0-0.3-0.1-0.5-0.2-0.5c-0.4,0-0.8,0.4-1.2,1.3
		c-0.1-0.1-0.2-0.2-0.2-0.3c0-0.3,0.3-0.7,0.8-1.2c0.6-0.5,1-0.8,1.3-0.8c0.4,0,0.7,0.3,0.7,0.8c0,0.1,0,0.3,0,0.6l-0.1,0.6
		l-0.1,0.5l-0.1,0.5c0.6-0.9,1.3-1.6,2-2.2c0.7-0.6,1.3-0.9,1.8-0.9c0.5,0,0.7,0.3,0.7,1c0,0.2,0,0.5-0.1,0.9l-0.4,2.8
		c-0.1,0.6-0.1,1-0.1,1.3c0,0.3,0.1,0.4,0.2,0.4c0.4,0,0.8-0.5,1.3-1.4c0.1,0.1,0.2,0.2,0.2,0.2c0,0.3-0.3,0.8-0.9,1.3
		c-0.6,0.5-1,0.8-1.4,0.8c-0.4,0-0.6-0.3-0.6-0.9c0-0.4,0.1-1,0.2-1.7l0.3-1.8c0.1-0.6,0.1-1.1,0.1-1.4c0-0.4-0.1-0.6-0.4-0.6
		c-0.7,0-1.3,0.4-2,1.3c-0.7,0.9-1.1,1.8-1.2,2.8L48.7,10.5z"/>
	<path d="M60.1,8.4c0.1,0.1,0.2,0.2,0.2,0.3c0,0.2-0.2,0.4-0.5,0.8c-0.9,1-1.7,1.5-2.6,1.5c-0.5,0-0.9-0.2-1.3-0.6
		c-0.3-0.4-0.5-0.9-0.5-1.6c0-1.2,0.4-2.3,1.3-3.5c0.9-1.2,1.7-1.8,2.6-1.8c0.6,0,0.9,0.3,0.9,1c0,0.7-0.4,1.5-1.1,2.2
		c-0.7,0.7-1.6,1.2-2.7,1.5C56.7,9.4,57.2,10,58,10C58.9,10,59.6,9.5,60.1,8.4z M56.6,7.3c0.1,0.1,0.3,0.1,0.4,0.1
		c0.6,0,1.2-0.2,1.7-0.6c0.5-0.4,0.7-0.8,0.7-1.4c0-0.6-0.3-0.9-0.9-0.9c-0.4,0-0.8,0.3-1.2,0.8S56.7,6.5,56.6,7.3z"/>
	<path d="M66.9,7.8c-0.5,0.9-1.1,1.7-1.6,2.3c-0.6,0.6-1,0.9-1.4,0.9c-0.5,0-0.8-0.5-0.8-1.5L63,8.4l-0.1-2.2l0-0.6
		c0-0.8-0.2-1.2-0.5-1.2c-0.4,0-0.8,0.4-1.2,1.1c-0.1-0.1-0.2-0.2-0.2-0.3c0-0.3,0.2-0.6,0.7-1.1s0.9-0.7,1.2-0.7
		c0.3,0,0.5,0.1,0.7,0.4C63.9,4.2,64,4.8,64,5.5l0.1,2.7c0.1,1,0.2,1.5,0.5,1.5c0.4,0,0.9-0.5,1.5-1.4s1-1.9,1.2-2.8L67.6,4L69,3.5
		c-0.2,0.4-0.4,1.1-0.5,2l-1,5.1c-0.4,2-1,3.5-1.9,4.4c-1.3,1.4-2.7,2.1-4.4,2.1c-0.3,0-0.7-0.1-1.2-0.2l0.9-1
		c0.5,0.2,1,0.3,1.5,0.3c1.1,0,1.9-0.3,2.4-1c0.5-0.7,1-1.9,1.3-3.8L66.9,7.8z"/>
</g>
</svg>
