<?xml version="1.0" standalone="no"?>
<!DOCTYPE svg PUBLIC "-//W3C//DTD SVG 20010904//EN"
 "http://www.w3.org/TR/2001/REC-SVG-20010904/DTD/svg10.dtd">
<svg version="1.0" xmlns="http://www.w3.org/2000/svg"
 width="549.000000pt" height="549.000000pt" viewBox="0 0 549.000000 549.000000"
 preserveAspectRatio="xMidYMid meet">
<metadata>
Created by potrace 1.14, written by Peter Selinger 2001-2017
</metadata>
<g transform="translate(0.000000,549.000000) scale(0.100000,-0.100000)"
fill="#000000" stroke="none">
<path d="M1225 5379 c-77 -10 -106 -16 -155 -28 -399 -105 -714 -450 -832
-911 -68 -264 -32 -491 100 -628 116 -122 318 -193 543 -193 198 -1 234 27
163 127 -67 93 -124 197 -145 264 -104 328 -28 704 186 914 130 128 263 142
360 39 78 -83 116 -212 110 -376 -5 -120 -7 -139 -40 -317 -31 -169 -30 -166
-55 -280 -22 -99 -26 -117 -84 -365 -19 -82 -37 -161 -40 -175 -2 -14 -13 -63
-25 -110 -11 -47 -22 -97 -25 -110 -2 -14 -23 -95 -45 -180 -22 -85 -42 -166
-45 -180 -2 -14 -10 -47 -16 -75 -6 -27 -13 -57 -15 -65 -2 -8 -15 -64 -29
-125 -23 -98 -62 -264 -71 -305 -2 -8 -24 -105 -49 -215 -38 -163 -128 -564
-141 -625 -2 -8 -22 -98 -44 -200 -84 -386 -80 -489 25 -617 96 -118 230 -163
471 -159 178 3 183 6 178 104 -3 80 5 136 51 342 35 156 139 512 174 595 4 11
16 43 25 70 10 28 23 64 30 80 7 17 23 57 35 90 13 33 31 78 40 100 10 22 25
56 33 75 39 92 162 360 194 424 l36 71 24 -105 c12 -58 27 -121 33 -140 5 -19
30 -111 56 -205 140 -513 330 -959 559 -1310 181 -279 366 -441 594 -520 107
-38 201 -53 337 -54 278 -4 523 88 699 264 82 81 135 166 171 273 58 173 37
231 -69 187 -111 -46 -256 -76 -386 -80 -178 -4 -404 74 -590 206 -167 117
-400 382 -519 590 -113 197 -152 268 -193 354 -49 104 -139 312 -139 321 0 3
-6 20 -14 37 -30 66 -128 369 -151 467 -2 8 -13 53 -24 100 -11 47 -22 97 -25
110 -2 14 -10 50 -16 80 -6 30 -13 71 -16 90 -3 19 -7 40 -9 46 -2 7 35 71 81
144 143 226 302 434 466 613 l81 88 17 -44 c54 -141 168 -214 380 -242 54 -7
325 -6 343 1 10 3 17 3 17 0 0 -11 -60 -280 -75 -336 -8 -30 -16 -66 -19 -80
-2 -14 -14 -63 -26 -110 -12 -47 -23 -92 -25 -100 -2 -8 -17 -72 -34 -142 -17
-70 -42 -187 -57 -260 -14 -73 -36 -178 -49 -233 -13 -55 -26 -113 -29 -130
-2 -16 -12 -68 -20 -115 -25 -135 -31 -222 -30 -430 1 -231 18 -321 88 -465
66 -135 150 -210 286 -254 300 -96 625 -5 896 251 178 169 328 403 367 573 18
79 13 172 -11 205 -19 25 -58 37 -78 23 -5 -5 -41 -62 -78 -128 -91 -160 -166
-265 -252 -350 -216 -215 -436 -222 -515 -17 -41 108 -33 328 22 612 11 58 23
116 25 130 7 32 130 551 270 1128 56 234 72 286 89 295 13 7 100 11 240 11
230 1 214 3 400 -49 11 -3 29 1 40 9 18 13 20 26 20 123 0 91 -4 116 -23 158
-58 126 -196 190 -457 211 -44 4 -87 8 -95 9 -25 4 -17 53 46 312 13 55 25
134 26 175 1 74 -14 152 -32 163 -6 4 -8 10 -5 15 11 18 -109 123 -174 153
-137 61 -382 108 -571 108 -217 0 -386 -43 -615 -155 -236 -116 -395 -234
-620 -460 -206 -208 -369 -421 -565 -741 -51 -82 -89 -141 -86 -130 24 85 86
364 95 425 6 41 13 95 17 120 8 62 8 258 -1 311 -20 119 -25 138 -57 233 -83
244 -245 431 -455 527 -47 21 -183 70 -193 69 -3 0 -24 2 -48 6 -63 9 -180 11
-237 3z m2770 -1000 c-32 -136 -39 -155 -57 -156 -170 -10 -600 -14 -595 -6
12 19 171 120 255 162 46 23 123 55 171 71 98 33 244 61 249 48 2 -4 -8 -58
-23 -119z"/>
</g>
</svg>
