<?xml version="1.0" encoding="utf-8"?>
<!-- Generator: Adobe Illustrator 26.4.1, SVG Export Plug-In . SVG Version: 6.00 Build 0)  -->
<svg version="1.1" id="Layer_1" xmlns="http://www.w3.org/2000/svg" xmlns:xlink="http://www.w3.org/1999/xlink" x="0px" y="0px"
	 viewBox="0 0 146.2 110.2" style="enable-background:new 0 0 146.2 110.2;" xml:space="preserve">
<style type="text/css">
	.st0{fill:none;stroke:#000000;stroke-width:4;stroke-miterlimit:10;}
</style>
<g>
	<path d="M31,45.2h-2.7v-2.7v-2.7v-2.7v-2.7v-2.7v-2.7h-2.7H23h-2.7h-2.7H15v2.7v2.7v2.7v2.7v2.7v2.7h-2.7H9.6v-2.7v-2.7v-2.7v-2.7
		v-2.7v-2.7v-2.7v-2.7v-2.7v-2.7h2.7H15v2.7v2.7h2.7h2.7H23h2.7h2.7v-2.7v-2.7H31h2.7v2.7v2.7v2.7v2.7v2.7v2.7v2.7v2.7v2.7v2.7H31z
		 M28.3,18.5h-2.7H23h-2.7h-2.7H15v-2.7v-2.7h2.7h2.7H23h2.7h2.7v2.7V18.5z"/>
	<path d="M58.2,45.2h-2.7v-2.7v-2.7v-2.7v-2.7v-2.7v-2.7v-2.7v-2.7v-2.7v-2.7v-2.7v-2.7h2.7h2.7h2.7h2.7h2.7h2.7h2.7h2.7h2.7v2.7
		v2.7h2.7h2.7v2.7v2.7h-2.7h-2.7v-2.7v-2.7h-2.7h-2.7h-2.7h-2.7h-2.7h-2.7h-2.7v2.7v2.7h2.7h2.7h2.7h2.7h2.7h2.7h2.7v2.7v2.7h-2.7
		v2.7v2.7h2.7h2.7v2.7v2.7h-2.7h-2.7v-2.7v-2.7h-2.7h-2.7v-2.7v-2.7h-2.7h-2.7h-2.7h-2.7v2.7v2.7v2.7v2.7v2.7v2.7H58.2z M84.9,45.2
		h-2.7v-2.7v-2.7h2.7h2.7v2.7v2.7H84.9z"/>
	<path d="M122.7,45.2h-2.7v-2.7v-2.7v-2.7v-2.7v-2.7v-2.7v-2.7v-2.7v-2.7v-2.7h-2.7h-2.7h-2.7h-2.7v-2.7v-2.7h2.7h2.7h2.7h2.7h2.7
		h2.7h2.7h2.7h2.7h2.7v2.7v2.7h-2.7h-2.7h-2.7h-2.7v2.7v2.7v2.7v2.7v2.7v2.7v2.7v2.7v2.7v2.7H122.7z"/>
	<path d="M20.3,96.5h-2.7H15h-2.7v-2.7v-2.7H15v-2.7v-2.7v-2.7v-2.7v-2.7v-2.7v-2.7v-2.7h-2.7v-2.7v-2.7H15h2.7h2.7H23v2.7v2.7h-2.7
		v2.7v2.7v2.7v2.7v2.7v2.7v2.7v2.7H23v2.7v2.7H20.3z"/>
	<path d="M59.5,75.1h-2.7h-2.7v-2.7v-2.7h2.7h2.7v2.7V75.1z M70.2,96.5h-2.7h-2.7h-2.7h-2.7h-2.7h-2.7v-2.7v-2.7h2.7h2.7h2.7h2.7
		h2.7h2.7h2.7v2.7v2.7H70.2z M75.5,69.8h-2.7h-2.7h-2.7h-2.7h-2.7h-2.7v-2.7v-2.7h2.7h2.7h2.7h2.7h2.7h2.7h2.7v2.7v2.7H75.5z
		 M72.9,80.5h-2.7h-2.7h-2.7h-2.7h-2.7v-2.7v-2.7h2.7h2.7h2.7h2.7h2.7v2.7V80.5z M72.9,91.2v-2.7v-2.7v-2.7v-2.7h2.7h2.7v2.7v2.7
		v2.7v2.7h-2.7H72.9z"/>
	<path d="M122.7,96.5h-2.7v-2.7v-2.7v-2.7v-2.7v-2.7v-2.7v-2.7v-2.7v-2.7v-2.7h-2.7h-2.7h-2.7h-2.7v-2.7v-2.7h2.7h2.7h2.7h2.7h2.7
		h2.7h2.7h2.7h2.7h2.7v2.7v2.7h-2.7h-2.7h-2.7h-2.7v2.7v2.7v2.7v2.7v2.7v2.7v2.7v2.7v2.7v2.7H122.7z"/>
</g>
<rect x="2.1" y="2" class="st0" width="142.1" height="106.3"/>
</svg>
